<svg width="72" height="45" viewBox="0 0 72 45" fill="none" xmlns="http://www.w3.org/2000/svg">
<path d="M71.9903 43.256C72.0567 42.6838 71.7779 42.4461 71.2556 42.3888C70.5873 42.314 69.9234 42.1863 69.2551 42.1687C68.2592 42.1379 67.3607 41.8386 66.4578 41.4512C65.9223 41.2223 65.5283 40.8922 65.2185 40.4299C63.9704 38.5547 62.7267 36.6794 61.483 34.7998C59.2124 31.3662 56.9463 27.9326 54.6713 24.5034C54.4456 24.1601 54.4854 23.9796 54.897 23.8563C56.5878 23.3457 58.2387 22.7558 59.7657 21.8358C62.7975 20.0134 64.5015 17.3061 65.0282 13.8902C65.3159 12.0149 65.2805 10.1133 64.7803 8.23799C64.2758 6.35393 63.2976 4.80002 61.7706 3.58506C59.8675 2.07517 57.6102 1.37965 55.2954 0.864613C52.5424 0.252733 49.7141 0.0986619 46.9258 0.0942599C38.9766 0.0766519 31.023 -0.183067 23.0739 0.243929C21.1574 0.349577 19.2233 0.516854 17.3422 0.891025C15.6249 1.22998 13.9519 1.83746 12.2877 2.41412C10.2473 3.11845 8.45474 4.29378 6.81711 5.66721C4.87851 7.28275 3.3117 9.20644 2.17864 11.4867C1.28015 13.3003 0.664936 15.1976 0.350688 17.1785C-0.0210982 19.4719 -0.0963406 21.7874 0.120535 24.1161C0.448061 27.6729 1.4749 31.0008 3.26301 34.0866C4.65278 36.4857 6.48958 38.5107 8.69375 40.2186C11.0351 42.0367 13.6597 43.2913 16.4836 44.11C18.6213 44.7307 20.8299 45.0168 23.0783 44.9992C26.6147 44.9728 30.1511 44.9904 33.6875 44.9904C37.5249 44.9904 41.3622 44.9904 45.1996 44.9904C45.6953 44.9904 46.191 44.9816 46.6868 44.9904C47.0674 44.9992 47.2356 44.8276 47.2267 44.449C47.2134 44.044 47.1913 43.639 47.2267 43.234C47.2754 42.6882 47.0497 42.4109 46.5141 42.3316C45.4475 42.1731 44.3896 41.975 43.3185 41.8386C42.8361 41.777 42.7078 41.5613 42.7078 41.1123C42.7166 35.8518 42.7166 30.5958 42.7078 25.3354C42.7078 24.882 42.8582 24.6971 43.3185 24.7015C45.0004 24.7147 46.6779 24.7103 48.3598 24.7015C48.7537 24.7015 49.0237 24.8424 49.2317 25.1814C49.8115 26.1454 50.4135 27.0962 51.011 28.0471C52.8611 30.9744 54.7156 33.8974 56.5656 36.8291C58.1767 39.3867 59.7922 41.9442 61.3811 44.515C61.598 44.8672 61.8503 44.9904 62.2398 44.986C63.8686 44.9772 65.4929 44.986 67.1217 44.986C68.5203 44.986 69.9145 44.9772 71.3132 44.986C71.8089 44.9904 72.0346 44.8144 71.9859 44.2993C71.9549 43.9516 71.9461 43.5906 71.9859 43.2472L71.9903 43.256ZM33.2361 41.416C31.5365 41.4116 29.8413 41.4204 28.1417 41.4116C25.8623 41.3984 23.574 41.4424 21.2991 41.3324C18.9134 41.2179 16.6562 40.5532 14.5228 39.4439C11.5795 37.9164 9.33109 35.689 7.7333 32.8321C6.79055 31.1505 6.26386 29.3148 5.93633 27.4044C5.40078 24.2877 5.62651 21.1887 6.10895 18.1117C6.52057 15.4925 7.39249 13.0098 8.85751 10.7603C10.3801 8.42288 12.4426 6.74571 14.9876 5.59678C18.1168 4.17933 21.4451 3.84918 24.8133 3.77435C27.6062 3.71272 30.4034 3.75234 33.1962 3.74793C33.7849 3.74793 33.9177 3.902 33.9177 4.58432C33.9177 7.48525 33.9177 10.3906 33.9177 13.2915C33.9177 16.4037 33.9177 19.5204 33.9177 22.6326C33.9221 22.6326 33.9309 22.6326 33.9354 22.6326C33.9354 28.6854 33.9354 34.7337 33.9398 40.7865C33.9398 41.2883 33.6831 41.4248 33.2405 41.4204L33.2361 41.416ZM43.2654 21.5013C42.7609 21.5101 42.7078 21.2107 42.7078 20.8102C42.7166 18.0853 42.7078 15.3605 42.7122 12.6356C42.7122 9.96358 42.7122 7.29156 42.7122 4.61953C42.7122 3.80516 42.7741 3.74793 43.5797 3.75674C45.3457 3.77875 47.1161 3.76994 48.8776 3.82277C50.5905 3.87559 52.3078 3.99445 53.9587 4.50508C55.738 5.05533 57.4066 5.83009 58.3803 7.53367C58.73 8.14995 59 8.83667 59.1681 9.52338C59.6284 11.4118 59.6373 13.3091 59.084 15.1932C58.6769 16.571 58.0395 17.8036 56.9551 18.7632C55.8885 19.7052 54.627 20.2907 53.255 20.7133C49.9753 21.7258 46.6115 21.4396 43.2654 21.5013Z" fill="#414141"/>
</svg>
