<svg width="18" height="18" viewBox="0 0 18 18" fill="none" xmlns="http://www.w3.org/2000/svg">
<circle cx="9" cy="9" r="9" fill="#F6F5F3"/>
<path d="M15.271 12.7738C15.283 12.6697 15.2323 12.6265 15.1374 12.6161C15.0159 12.6025 14.8952 12.5793 14.7737 12.5761C14.5926 12.5705 14.4292 12.5161 14.2651 12.4456C14.1677 12.404 14.0961 12.344 14.0397 12.26C13.8128 11.919 13.5867 11.578 13.3605 11.2363C12.9477 10.612 12.5357 9.98771 12.1221 9.36423C12.081 9.3018 12.0883 9.26899 12.1631 9.24657C12.4705 9.15373 12.7707 9.04648 13.0483 8.87921C13.5995 8.54785 13.9094 8.05563 14.0051 7.43455C14.0574 7.09359 14.051 6.74783 13.9601 6.40687C13.8683 6.06432 13.6905 5.78179 13.4129 5.56089C13.0668 5.28636 12.6564 5.1599 12.2355 5.06626C11.735 4.95501 11.2208 4.927 10.7138 4.9262C9.26848 4.92299 7.82238 4.87577 6.37708 4.95341C6.02863 4.97262 5.67696 5.00303 5.33495 5.07106C5.02272 5.13269 4.71853 5.24314 4.41595 5.34799C4.04497 5.47605 3.71905 5.68975 3.4213 5.93946C3.06883 6.23319 2.78395 6.58295 2.57794 6.99754C2.41458 7.3273 2.30272 7.67225 2.24559 8.03242C2.17799 8.44941 2.16431 8.8704 2.20374 9.2938C2.26329 9.94049 2.44999 10.5456 2.7751 11.1066C3.02778 11.5428 3.36175 11.911 3.7625 12.2215C4.18821 12.5521 4.66541 12.7802 5.17883 12.9291C5.56752 13.0419 5.96908 13.0939 6.37788 13.0907C7.02086 13.0859 7.66385 13.0891 8.30683 13.0891C9.00453 13.0891 9.70223 13.0891 10.3999 13.0891C10.4901 13.0891 10.5802 13.0875 10.6703 13.0891C10.7395 13.0907 10.7701 13.0595 10.7685 12.9907C10.7661 12.9171 10.7621 12.8434 10.7685 12.7698C10.7774 12.6705 10.7363 12.6201 10.6389 12.6057C10.445 12.5769 10.2527 12.5409 10.0579 12.5161C9.97021 12.5049 9.94687 12.4657 9.94687 12.384C9.94848 11.4276 9.94848 10.4719 9.94687 9.5155C9.94687 9.43306 9.97423 9.39945 10.0579 9.40025C10.3637 9.40265 10.6687 9.40185 10.9745 9.40025C11.0461 9.40025 11.0952 9.42586 11.133 9.48749C11.2385 9.66277 11.3479 9.83564 11.4565 10.0085C11.7929 10.5408 12.1301 11.0722 12.4665 11.6053C12.7594 12.0703 13.0531 12.5353 13.342 13.0027C13.3815 13.0667 13.4273 13.0891 13.4982 13.0883C13.7943 13.0867 14.0896 13.0883 14.3858 13.0883C14.6401 13.0883 14.8936 13.0867 15.1479 13.0883C15.238 13.0891 15.279 13.0571 15.2702 12.9635C15.2645 12.9002 15.2629 12.8346 15.2702 12.7722L15.271 12.7738ZM8.22474 12.4392C7.91573 12.4384 7.60751 12.44 7.2985 12.4384C6.88406 12.436 6.46801 12.444 6.05438 12.424C5.62063 12.4032 5.21022 12.2824 4.82234 12.0807C4.28719 11.8029 3.87839 11.398 3.58788 10.8785C3.41647 10.5728 3.32071 10.239 3.26116 9.89167C3.16378 9.32501 3.20483 8.76155 3.29254 8.2021C3.36738 7.72588 3.52591 7.27447 3.79228 6.86548C4.06911 6.44049 4.44411 6.13555 4.90683 5.92665C5.47578 5.66894 6.08094 5.60891 6.69334 5.5953C7.20112 5.5841 7.70972 5.5913 8.2175 5.5905C8.32453 5.5905 8.34867 5.61851 8.34867 5.74257C8.34867 6.27001 8.34867 6.79825 8.34867 7.3257C8.34867 7.89155 8.34867 8.45821 8.34867 9.02407C8.34948 9.02407 8.35109 9.02407 8.35189 9.02407C8.35189 10.1246 8.35189 11.2243 8.3527 12.3248C8.3527 12.416 8.30602 12.4408 8.22555 12.44L8.22474 12.4392ZM10.0483 8.81838C9.95653 8.81998 9.94687 8.76555 9.94687 8.69272C9.94848 8.19729 9.94687 7.70187 9.94767 7.20644C9.94767 6.72062 9.94767 6.2348 9.94767 5.74897C9.94767 5.6009 9.95894 5.5905 10.1054 5.5921C10.4265 5.5961 10.7484 5.5945 11.0687 5.60411C11.3801 5.61371 11.6923 5.63532 11.9925 5.72816C12.316 5.82821 12.6194 5.96907 12.7964 6.27882C12.86 6.39087 12.9091 6.51572 12.9397 6.64058C13.0234 6.98394 13.025 7.3289 12.9244 7.67145C12.8503 7.92197 12.7345 8.14607 12.5373 8.32055C12.3434 8.49183 12.114 8.59828 11.8645 8.67511C11.2682 8.8592 10.6566 8.80717 10.0483 8.81838Z" fill="#242424"/>
</svg>
